<svg id="Layer_1" data-name="Layer 1" xmlns="http://www.w3.org/2000/svg" viewBox="0 0 512 512"><defs><style>.cls-1{fill:#2b374f;}</style></defs><title>holy-book-outline</title><path class="cls-1" d="M396.8,0H115.2A44.85,44.85,0,0,0,70.4,44.8V396.61a44.85,44.85,0,0,0,44.8,44.8h6.4V499.2a12.8,12.8,0,0,0,20.79,10l24-19.2,24,19.2a12.8,12.8,0,0,0,20.79-10V441.41H396.8a44.85,44.85,0,0,0,44.8-44.8V44.8A44.85,44.85,0,0,0,396.8,0ZM321.41,415.81H147.2V25.6H321.41A115.43,115.43,0,0,0,416,120V321.38A115.43,115.43,0,0,0,321.41,415.81ZM396.61,25.6a19.22,19.22,0,0,1,19.2,19.2V93.94A89.81,89.81,0,0,1,347.47,25.6ZM96,396.61V44.8a19.22,19.22,0,0,1,19.2-19.2h6.4V415.81h-6.4A19.22,19.22,0,0,1,96,396.61Zm89.6,76-11.21-9a12.79,12.79,0,0,0-16,0l-11.21,9V441.41h38.4Zm161.88-56.76a89.81,89.81,0,0,1,68.33-68.34v49.14a19.22,19.22,0,0,1-19.2,19.2Z"/><path class="cls-1" d="M326.4,153.6H307.2V134.4A19.22,19.22,0,0,0,288,115.2H249.6a19.22,19.22,0,0,0-19.2,19.2v19.2H211.2A19.22,19.22,0,0,0,192,172.8v38.4a19.22,19.22,0,0,0,19.2,19.2h19.2v76.8a19.22,19.22,0,0,0,19.2,19.2H288a19.22,19.22,0,0,0,19.2-19.2V230.4h19.2a19.22,19.22,0,0,0,19.2-19.2V172.8A19.22,19.22,0,0,0,326.4,153.6ZM320,204.8H281.6v96H256v-96H217.6V179.2H256V140.8h25.6v38.4H320Z"/></svg>